<svg width="128" height="128" viewBox="0 0 128 128" fill="none" xmlns="http://www.w3.org/2000/svg">
  <g clip-path="url(#clip0_1_2)">
    <mask id="mask0_1_2" style="mask-type:luminance" maskUnits="userSpaceOnUse" x="0" y="0" width="128" height="128">
      <path d="M106.667 0H21.3333C9.55126 0 0 9.55126 0 21.3333V106.667C0 118.449 9.55126 128 21.3333 128H106.667C118.449 128 128 118.449 128 106.667V21.3333C128 9.55126 118.449 0 106.667 0Z" fill="white" />
    </mask>
    <g mask="url(#mask0_1_2)">
      <path d="M128 0H0V128H128V0Z" fill="#121315" />
      <path fill-rule="evenodd" clip-rule="evenodd" d="M44.5001 100.037C47.2849 101.128 50.7802 101.674 54.985 101.674C59.5174 101.674 63.3673 100.937 66.5344 99.4641C69.7016 97.9908 72.1318 95.8353 73.8244 92.998C75.5174 90.1606 76.364 86.6684 76.364 82.5216V43.1526C76.364 42.6071 76.1455 42.1432 75.7086 41.7613C75.3263 41.3248 74.8348 41.1065 74.234 41.1065H64.8141C64.2133 41.1065 63.7222 41.3248 63.34 41.7613C62.9577 42.1432 62.7665 42.6071 62.7665 43.1526V46.1811C61.4012 44.4894 59.6536 43.098 57.5241 42.0068C55.4488 40.861 52.937 40.288 49.9883 40.288C47.203 40.288 44.7458 40.7518 42.6161 41.6794C40.4864 42.5525 38.6843 43.8349 37.2099 45.5262C35.7901 47.2179 34.698 49.2369 33.9334 51.5832C33.1689 53.9294 32.7048 56.5756 32.541 59.5221C32.4864 60.9408 32.4864 62.3595 32.541 63.7781C32.7048 66.8339 33.1689 69.5352 33.9334 71.8814C34.7526 74.2276 35.872 76.2193 37.2918 77.856C38.7116 79.4931 40.4864 80.7206 42.6161 81.5394C44.7458 82.3578 47.203 82.7669 49.9883 82.7669C52.7731 82.7669 55.1488 82.3578 57.1145 81.5394C59.0805 80.6665 60.6912 79.5477 61.9473 78.1837V83.6672C61.9473 85.6316 61.6742 87.1868 61.1281 88.3328C60.582 89.533 59.7628 90.3791 58.6709 90.8702C57.5787 91.4155 56.2133 91.6885 54.5754 91.6885C53.1008 91.6885 51.9266 91.4701 51.0532 91.0336C50.234 90.6517 49.5787 90.1333 49.0872 89.4784C48.6502 88.8239 48.2953 88.1963 48.0222 87.5959C47.8037 86.9956 47.5034 86.5591 47.1211 86.2865C46.7938 86.0681 46.3842 85.9593 45.8927 85.9593H35.4898C34.8891 85.9593 34.3703 86.15 33.9334 86.5318C33.4966 86.9141 33.3055 87.4052 33.3601 88.0051C33.4147 88.8785 33.797 90.0514 34.5068 91.5247C35.2167 93.0526 36.3635 94.5805 37.9471 96.1084C39.5854 97.6363 41.7697 98.9457 44.5001 100.037ZM58.6709 70.9811C57.5787 71.7449 56.1587 72.1267 54.4115 72.1267C52.6093 72.1267 51.162 71.7449 50.0702 70.9811C49.0325 70.217 48.268 69.1802 47.7764 67.8707C47.3395 66.5613 47.0665 65.1153 46.9572 63.5328C46.9026 62.278 46.9026 61.05 46.9572 59.8498C47.0665 58.2673 47.3395 56.8213 47.7764 55.5119C48.268 54.202 49.0325 53.1652 50.0702 52.4015C51.162 51.6378 52.6093 51.2555 54.4115 51.2555C56.1587 51.2555 57.5787 51.6378 58.6709 52.4015C59.7628 53.111 60.5547 54.0659 61.0462 55.2661C61.5923 56.4668 61.8927 57.7762 61.9473 59.1949C62.0019 59.7406 62.0292 60.5589 62.0292 61.6503C62.0292 62.7418 62.0019 63.5874 61.9473 64.1877C61.8927 65.5518 61.5923 66.8339 61.0462 68.0346C60.5547 69.2348 59.7628 70.217 58.6709 70.9811Z" fill="white" />
      <path d="M84.7808 24.7799H77.5501V20.6875H96.1045V24.7799H88.8734V103.22H96.1045V107.313H77.5501V103.22H84.7808V24.7799Z" fill="#E9EBEF" />
    </g>
  </g>
  <defs>
    <clipPath id="clip0_1_2">
      <rect width="128" height="128" fill="white" />
    </clipPath>
  </defs>
</svg>