<svg width="362" height="101" viewBox="0 0 362 101" fill="none" xmlns="http://www.w3.org/2000/svg">
<path d="M61.3814 4.68227H53.1445V0H74.2799V4.68227H66.043V94.4289H74.2799V99.1112H53.1445V94.4289H61.3814V4.68227Z" fill="white"/>
<path d="M171.56 71.3428C171.995 71.7792 172.553 71.9975 173.236 71.9975H184.224C184.907 71.9975 185.465 71.7792 185.9 71.3428C186.397 70.9063 186.645 70.3452 186.645 69.6593V43.6589C186.645 41.5389 186.955 39.8555 187.576 38.6084C188.259 37.2991 189.128 36.3638 190.183 35.8026C191.301 35.2415 192.418 34.9609 193.535 34.9609C194.839 34.9609 196.018 35.2415 197.074 35.8026C198.129 36.3638 198.998 37.2991 199.681 38.6084C200.364 39.8555 200.705 41.5701 200.705 43.7524V69.6593C200.705 70.3452 200.923 70.9063 201.357 71.3428C201.792 71.7792 202.35 71.9975 203.033 71.9975H213.835C214.517 71.9975 215.076 71.7792 215.511 71.3428C215.945 70.9063 216.162 70.3452 216.162 69.6593V43.7524C216.162 41.5701 216.473 39.8555 217.094 38.6084C217.776 37.2991 218.645 36.3638 219.701 35.8026C220.818 35.2415 221.936 34.9609 223.053 34.9609C224.419 34.9609 225.629 35.2415 226.684 35.8026C227.74 36.3638 228.578 37.2991 229.199 38.6084C229.819 39.8555 230.13 41.5701 230.13 43.7524V69.6593C230.13 70.3452 230.347 70.9063 230.781 71.3428C231.278 71.7792 231.868 71.9975 232.551 71.9975H243.352C243.973 71.9975 244.5 71.7792 244.935 71.3428C245.432 70.9063 245.68 70.3452 245.68 69.6593V43.0977C245.68 38.2967 244.904 34.3997 243.352 31.4069C241.8 28.3517 239.721 26.107 237.113 24.6729C234.568 23.1765 231.682 22.4283 228.454 22.4283C225.288 22.4283 222.37 23.2077 219.701 24.7665C217.031 26.2629 214.983 28.1958 213.555 30.5651C210.886 25.0159 205.982 22.3036 198.843 22.4283C195.801 22.4907 193.163 23.1765 190.928 24.4859C188.693 25.7329 186.955 27.1982 185.714 28.8816V25.7017C185.714 25.0159 185.496 24.4547 185.062 24.0183C184.627 23.5818 184.069 23.3636 183.386 23.3636H173.236C172.553 23.3636 171.995 23.5818 171.56 24.0183C171.126 24.4547 170.908 25.0159 170.908 25.7017V69.6593C170.908 70.3452 171.126 70.9063 171.56 71.3428Z" fill="white"/>
<path fill-rule="evenodd" clip-rule="evenodd" d="M130.511 72.9327C127.159 72.9327 124.148 72.3092 121.479 71.0622C118.872 69.7528 116.792 68.007 115.24 65.8247C113.688 63.6424 112.912 61.1795 112.912 58.4361C112.912 54.0092 114.712 50.5175 118.313 47.9611C121.913 45.3423 126.693 43.5653 132.653 42.6301L144.292 40.8531V39.5437C144.292 37.2991 143.826 35.5844 142.895 34.3997C141.964 33.2151 140.257 32.6227 137.774 32.6227C136.036 32.6227 134.608 32.9656 133.491 33.6515C132.435 34.3374 131.597 35.2726 130.977 36.4573C130.418 37.2679 129.642 37.6732 128.649 37.6732H118.22C117.537 37.6732 117.009 37.4861 116.637 37.112C116.264 36.6755 116.109 36.1767 116.171 35.6156C116.171 34.4933 116.575 33.2151 117.382 31.781C118.251 30.2845 119.554 28.8193 121.293 27.3852C123.031 25.9511 125.266 24.7665 127.997 23.8312C130.728 22.8959 134.018 22.4283 137.867 22.4283C141.902 22.4283 145.347 22.8959 148.203 23.8312C151.058 24.7665 153.355 26.0758 155.093 27.7593C156.894 29.4428 158.228 31.438 159.097 33.745C159.966 35.9897 160.401 38.4837 160.401 41.2272V69.6593C160.401 70.3452 160.153 70.9063 159.656 71.3428C159.222 71.7792 158.694 71.9975 158.073 71.9975H147.272C146.589 71.9975 146.03 71.7792 145.596 71.3428C145.161 70.9063 144.944 70.3452 144.944 69.6593V66.3859C144.137 67.5705 143.051 68.6617 141.685 69.6593C140.319 70.6569 138.705 71.4363 136.843 71.9975C135.043 72.621 132.932 72.9327 130.511 72.9327ZM134.887 62.2707C136.688 62.2707 138.302 61.8966 139.729 61.1484C141.219 60.3378 142.368 59.122 143.175 57.5008C144.044 55.8173 144.478 53.7286 144.478 51.2345V49.9252L136.563 51.3281C133.646 51.8269 131.504 52.6063 130.139 53.6662C128.835 54.6638 128.183 55.8485 128.183 57.2202C128.183 58.2802 128.494 59.1843 129.114 59.9325C129.735 60.6807 130.542 61.2731 131.535 61.7095C132.529 62.0836 133.646 62.2707 134.887 62.2707Z" fill="white"/>
<path d="M76.8476 71.9975C76.1647 71.9975 75.606 71.7792 75.1715 71.3428C74.737 70.9063 74.5197 70.3452 74.5197 69.6593V25.7017C74.5197 25.0782 74.737 24.5482 75.1715 24.1118C75.606 23.613 76.1647 23.3636 76.8476 23.3636H87.5558C88.2387 23.3636 88.7974 23.613 89.2319 24.1118C89.6664 24.5482 89.8837 25.0782 89.8837 25.7017V29.4428C91.5598 27.5099 93.5462 26.0135 95.8431 24.9535C98.202 23.8936 100.84 23.3636 103.758 23.3636H107.855C108.476 23.3636 109.003 23.5818 109.438 24.0183C109.935 24.4547 110.183 25.0159 110.183 25.7017V35.335C110.183 35.9585 109.935 36.5197 109.438 37.0185C109.003 37.4549 108.476 37.6732 107.855 37.6732H98.8228C96.2776 37.6732 94.2912 38.3902 92.8634 39.8243C91.4977 41.196 90.8148 43.1601 90.8148 45.7165V69.6593C90.8148 70.3452 90.5665 70.9063 90.0699 71.3428C89.6354 71.7792 89.0767 71.9975 88.3939 71.9975H76.8476Z" fill="white"/>
<path fill-rule="evenodd" clip-rule="evenodd" d="M270.638 72.9327C267.286 72.9327 264.276 72.3092 261.606 71.0622C258.999 69.7528 256.919 68.007 255.368 65.8247C253.816 63.6424 253.04 61.1795 253.04 58.4361C253.04 54.0092 254.84 50.5175 258.44 47.9611C262.041 45.3423 266.821 43.5653 272.78 42.6301L284.419 40.8531V39.5437C284.419 37.2991 283.954 35.5844 283.023 34.3997C282.092 33.2151 280.384 32.6227 277.901 32.6227C276.163 32.6227 274.735 32.9656 273.618 33.6515C272.563 34.3374 271.725 35.2726 271.104 36.4573C270.545 37.2679 269.769 37.6732 268.776 37.6732H258.347C257.664 37.6732 257.137 37.4861 256.764 37.112C256.392 36.6755 256.237 36.1767 256.299 35.6156C256.299 34.4933 256.702 33.2151 257.509 31.781C258.378 30.2845 259.682 28.8193 261.42 27.3852C263.158 25.9511 265.393 24.7665 268.124 23.8312C270.856 22.8959 274.146 22.4283 277.994 22.4283C282.029 22.4283 285.475 22.8959 288.33 23.8312C291.186 24.7665 293.483 26.0758 295.221 27.7593C297.021 29.4428 298.356 31.438 299.225 33.745C300.094 35.9897 300.528 38.4837 300.528 41.2272V69.6593C300.528 70.3452 300.28 70.9063 299.783 71.3428C299.349 71.7792 298.821 71.9975 298.2 71.9975H287.399C286.716 71.9975 286.158 71.7792 285.723 71.3428C285.288 70.9063 285.071 70.3452 285.071 69.6593V66.3859C284.264 67.5705 283.178 68.6617 281.812 69.6593C280.447 70.6569 278.833 71.4363 276.97 71.9975C275.17 72.621 273.059 72.9327 270.638 72.9327ZM275.015 62.2707C276.815 62.2707 278.429 61.8966 279.857 61.1484C281.347 60.3378 282.495 59.122 283.302 57.5008C284.171 55.8173 284.606 53.7286 284.606 51.2345V49.9252L276.691 51.3281C273.773 51.8269 271.632 52.6063 270.266 53.6662C268.962 54.6638 268.311 55.8485 268.311 57.2202C268.311 58.2802 268.621 59.1843 269.242 59.9325C269.862 60.6807 270.669 61.2731 271.663 61.7095C272.656 62.0836 273.773 62.2707 275.015 62.2707Z" fill="white"/>
<path d="M307.591 71.4363C308.025 71.8104 308.522 71.9975 309.08 71.9975H320.627C321.434 71.9975 322.023 71.8104 322.396 71.4363L323.327 70.501L332.825 57.6879L342.229 70.501C342.478 70.8128 342.788 71.1557 343.161 71.5298C343.533 71.8416 344.092 71.9975 344.837 71.9975H356.662C357.283 71.9975 357.78 71.8104 358.152 71.4363C358.587 70.9998 358.804 70.501 358.804 69.9399C358.804 69.6905 358.773 69.4411 358.711 69.1917C358.649 68.9423 358.494 68.6929 358.245 68.4434L342.509 47.0258L357.035 26.9176C357.221 26.6682 357.345 26.4188 357.407 26.1694C357.469 25.92 357.5 25.6706 357.5 25.4212C357.5 24.86 357.283 24.3924 356.848 24.0183C356.476 23.5818 356.01 23.3636 355.452 23.3636H344.557C343.75 23.3636 343.13 23.5818 342.695 24.0183C342.323 24.3924 342.012 24.7353 341.764 25.0471L333.197 37.0185L324.538 24.9535C324.351 24.6418 324.041 24.2988 323.606 23.9247C323.234 23.5506 322.644 23.3636 321.837 23.3636H310.477C309.918 23.3636 309.422 23.5818 308.987 24.0183C308.553 24.3924 308.335 24.86 308.335 25.4212C308.335 25.6706 308.367 25.92 308.429 26.1694C308.553 26.4188 308.708 26.6682 308.894 26.9176L323.048 47.0258L307.497 68.4434C307.311 68.6929 307.187 68.9734 307.125 69.2852C307.063 69.5346 307.032 69.7528 307.032 69.9399C307.032 70.501 307.218 70.9998 307.591 71.4363Z" fill="white"/>
<path fill-rule="evenodd" clip-rule="evenodd" d="M27.4258 92.6697C22.6459 92.6697 18.673 92.0462 15.5071 90.7992C12.4033 89.5521 9.92018 88.0557 8.05788 86.3099C6.25765 84.5641 4.95404 82.8182 4.14704 81.0724C3.34005 79.3889 2.90551 78.0484 2.84343 77.0507C2.78135 76.3649 2.99862 75.8037 3.49524 75.3673C3.99185 74.9308 4.58158 74.7126 5.26443 74.7126H17.0901C17.6487 74.7126 18.1143 74.8373 18.4868 75.0867C18.9213 75.3984 19.2627 75.8972 19.511 76.5831C19.8214 77.269 20.2249 77.986 20.7215 78.7342C21.2802 79.4824 22.0252 80.0748 22.9563 80.5112C23.9495 81.01 25.2842 81.2594 26.9603 81.2594C28.8226 81.2594 30.3745 80.9477 31.616 80.3242C32.8575 79.763 33.7887 78.7966 34.4095 77.4248C35.0302 76.1155 35.3406 74.3385 35.3406 72.0938V65.8275C33.9129 67.3863 32.0816 68.6645 29.8468 69.6621C27.6121 70.5974 24.9117 71.065 21.7458 71.065C18.5799 71.065 15.7864 70.5974 13.3654 69.6621C10.9445 68.7269 8.92695 67.324 7.31296 65.4534C5.69896 63.5829 4.42639 61.3071 3.49524 58.626C2.62616 55.9449 2.09851 52.8585 1.91228 49.3668C1.8502 47.7457 1.8502 46.1246 1.91228 44.5034C2.09851 41.1365 2.62616 38.1125 3.49524 35.4313C4.36431 32.7502 5.60585 30.4433 7.21984 28.5104C8.89592 26.5775 10.9445 25.1122 13.3654 24.1146C15.7864 23.0546 18.5799 22.5247 21.7458 22.5247C25.098 22.5247 27.9535 23.1793 30.3124 24.4887C32.7334 25.7357 34.7199 27.3257 36.2718 29.2586V25.7981C36.2718 25.1746 36.489 24.6446 36.9236 24.2081C37.3581 23.7093 37.9168 23.4599 38.5997 23.4599H49.3079C49.9907 23.4599 50.5494 23.7093 50.984 24.2081C51.4806 24.6446 51.7289 25.1746 51.7289 25.7981V70.7844C51.7289 75.5231 50.7667 79.5136 48.8423 82.7559C46.9179 85.9981 44.1555 88.461 40.5551 90.1445C36.9546 91.828 32.5782 92.6697 27.4258 92.6697ZM26.774 58.9066C28.7605 58.9066 30.3745 58.4701 31.616 57.5972C32.8575 56.7243 33.7577 55.6019 34.3164 54.2302C34.9371 52.8585 35.2785 51.3932 35.3406 49.8345C35.4027 49.1486 35.4337 48.1822 35.4337 46.9351C35.4337 45.6881 35.4027 44.7528 35.3406 44.1293C35.2785 42.5082 34.9371 41.0118 34.3164 39.6401C33.7577 38.2683 32.8575 37.1772 31.616 36.3666C30.3745 35.4937 28.7605 35.0572 26.774 35.0572C24.7255 35.0572 23.0805 35.4937 21.8389 36.3666C20.6595 37.2395 19.7904 38.4242 19.2317 39.9206C18.7351 41.4171 18.4247 43.0694 18.3005 44.8776C18.2385 46.2493 18.2385 47.6522 18.3005 49.0863C18.4247 50.8944 18.7351 52.5467 19.2317 54.0432C19.7904 55.5396 20.6595 56.7243 21.8389 57.5972C23.0805 58.4701 24.7255 58.9066 26.774 58.9066Z" fill="white"/>
</svg>
