<svg width="86" height="32" viewBox="0 0 86 32" fill="none" xmlns="http://www.w3.org/2000/svg">
<g clip-path="url(#clip0_145_27701)">
<path d="M14.5828 6.11262H12.626V5H17.6471V6.11262H15.6903V27.4386H17.6471V28.5512H12.626V27.4386H14.5828V6.11262Z" fill="#0F172A" fill-opacity="0.4"/>
<path d="M40.7572 21.9523C40.8605 22.056 40.9931 22.1079 41.1554 22.1079H43.7658C43.928 22.1079 44.0606 22.056 44.1639 21.9523C44.282 21.8486 44.3409 21.7153 44.3409 21.5523V15.374C44.3409 14.8702 44.4146 14.4702 44.5621 14.1739C44.7244 13.8628 44.9308 13.6405 45.1814 13.5072C45.447 13.3738 45.7124 13.3071 45.9778 13.3071C46.2876 13.3071 46.5677 13.3738 46.8185 13.5072C47.0692 13.6405 47.2756 13.8628 47.4379 14.1739C47.6001 14.4702 47.6811 14.8776 47.6811 15.3962V21.5523C47.6811 21.7153 47.7329 21.8486 47.836 21.9523C47.9394 22.056 48.0719 22.1079 48.2342 22.1079H50.8004C50.9624 22.1079 51.0952 22.056 51.1986 21.9523C51.3017 21.8486 51.3532 21.7153 51.3532 21.5523V15.3962C51.3532 14.8776 51.4271 14.4702 51.5747 14.1739C51.7367 13.8628 51.9431 13.6405 52.194 13.5072C52.4594 13.3738 52.725 13.3071 52.9903 13.3071C53.3149 13.3071 53.6023 13.3738 53.8529 13.5072C54.1038 13.6405 54.3029 13.8628 54.4504 14.1739C54.5977 14.4702 54.6716 14.8776 54.6716 15.3962V21.5523C54.6716 21.7153 54.7232 21.8486 54.8263 21.9523C54.9443 22.056 55.0845 22.1079 55.2468 22.1079H57.8127C57.9603 22.1079 58.0855 22.056 58.1888 21.9523C58.3069 21.8486 58.3658 21.7153 58.3658 21.5523V15.2406C58.3658 14.0998 58.1815 13.1738 57.8127 12.4626C57.444 11.7366 56.9501 11.2032 56.3306 10.8625C55.7259 10.5069 55.0403 10.3291 54.2734 10.3291C53.5213 10.3291 52.8281 10.5143 52.194 10.8847C51.5597 11.2403 51.0731 11.6996 50.7339 12.2626C50.0998 10.944 48.9348 10.2995 47.2388 10.3291C46.5161 10.3439 45.8894 10.5069 45.3584 10.818C44.8275 11.1144 44.4146 11.4625 44.1197 11.8626V11.1069C44.1197 10.944 44.068 10.8106 43.9648 10.7069C43.8615 10.6032 43.7289 10.5514 43.5667 10.5514H41.1554C40.9931 10.5514 40.8605 10.6032 40.7572 10.7069C40.6541 10.8106 40.6023 10.944 40.6023 11.1069V21.5523C40.6023 21.7153 40.6541 21.8486 40.7572 21.9523Z" fill="#0F172A"/>
<path fill-rule="evenodd" clip-rule="evenodd" d="M31.0052 22.3331C30.2089 22.3331 29.4935 22.1849 28.8595 21.8886C28.2401 21.5775 27.746 21.1626 27.3773 20.644C27.0086 20.1255 26.8242 19.5402 26.8242 18.8883C26.8242 17.8364 27.2518 17.0067 28.1073 16.3992C28.9626 15.7769 30.0982 15.3547 31.5141 15.1325L34.2791 14.7102V14.3991C34.2791 13.8657 34.1684 13.4582 33.9473 13.1767C33.7261 12.8952 33.3205 12.7545 32.7307 12.7545C32.3178 12.7545 31.9785 12.8359 31.7132 12.9989C31.4623 13.1619 31.2632 13.3841 31.1159 13.6657C30.9831 13.8583 30.7987 13.9546 30.5628 13.9546H28.0852C27.923 13.9546 27.7975 13.9101 27.7092 13.8212C27.6205 13.7175 27.5837 13.599 27.5985 13.4656C27.5985 13.199 27.6944 12.8952 27.8862 12.5545C28.0926 12.1989 28.4022 11.8507 28.8153 11.5099C29.2282 11.1691 29.7591 10.8876 30.4079 10.6654C31.0567 10.4431 31.8384 10.332 32.7528 10.332C33.7113 10.332 34.5298 10.4431 35.2083 10.6654C35.8865 10.8876 36.4322 11.1988 36.8451 11.5988C37.273 11.9988 37.5899 12.4729 37.7963 13.0211C38.0028 13.5545 38.1061 14.1472 38.1061 14.7991V21.5552C38.1061 21.7182 38.0472 21.8516 37.9291 21.9553C37.826 22.059 37.7006 22.1109 37.5531 22.1109H34.9871C34.8248 22.1109 34.692 22.059 34.5889 21.9553C34.4856 21.8516 34.434 21.7182 34.434 21.5552V20.7774C34.2423 21.0589 33.9843 21.3182 33.6598 21.5552C33.3353 21.7923 32.9518 21.9775 32.5095 22.1109C32.0819 22.259 31.5804 22.3331 31.0052 22.3331ZM32.0448 19.7995C32.4727 19.7995 32.8561 19.7106 33.1951 19.5328C33.5491 19.3402 33.8221 19.0513 34.0138 18.6661C34.2202 18.2661 34.3233 17.7697 34.3233 17.1771V16.8659L32.443 17.1993C31.75 17.3178 31.2411 17.503 30.9168 17.7549C30.607 17.992 30.4521 18.2735 30.4521 18.5994C30.4521 18.8513 30.526 19.0661 30.6733 19.2439C30.8208 19.4217 31.0126 19.5625 31.2485 19.6662C31.4846 19.7551 31.75 19.7995 32.0448 19.7995Z" fill="#0F172A"/>
<path d="M18.2562 22.1074C18.0939 22.1074 17.9612 22.0555 17.858 21.9518C17.7547 21.8481 17.7031 21.7147 17.7031 21.5517V11.1064C17.7031 10.9582 17.7547 10.8323 17.858 10.7286C17.9612 10.61 18.0939 10.5508 18.2562 10.5508H20.8001C20.9623 10.5508 21.0951 10.61 21.1983 10.7286C21.3015 10.8323 21.3531 10.9582 21.3531 11.1064V11.9953C21.7513 11.536 22.2232 11.1805 22.7689 10.9286C23.3293 10.6767 23.956 10.5508 24.6492 10.5508H25.6226C25.7701 10.5508 25.8953 10.6026 25.9986 10.7064C26.1165 10.8101 26.1756 10.9434 26.1756 11.1064V13.3955C26.1756 13.5436 26.1165 13.677 25.9986 13.7955C25.8953 13.8992 25.7701 13.9511 25.6226 13.9511H23.4768C22.8721 13.9511 22.4002 14.1215 22.061 14.4622C21.7366 14.7882 21.5744 15.2549 21.5744 15.8624V21.5517C21.5744 21.7147 21.5153 21.8481 21.3974 21.9518C21.2941 22.0555 21.1614 22.1074 20.9992 22.1074H18.2562Z" fill="#0F172A"/>
<path fill-rule="evenodd" clip-rule="evenodd" d="M64.295 22.3331C63.4987 22.3331 62.7836 22.1849 62.1493 21.8886C61.5299 21.5775 61.0358 21.1626 60.6673 20.644C60.2986 20.1255 60.1143 19.5402 60.1143 18.8883C60.1143 17.8364 60.5419 17.0067 61.3971 16.3992C62.2526 15.7769 63.3882 15.3547 64.8039 15.1325L67.5689 14.7102V14.3991C67.5689 13.8657 67.4585 13.4582 67.2373 13.1767C67.0161 12.8952 66.6103 12.7545 66.0205 12.7545C65.6076 12.7545 65.2683 12.8359 65.003 12.9989C64.7523 13.1619 64.5532 13.3841 64.4057 13.6657C64.2729 13.8583 64.0886 13.9546 63.8526 13.9546H61.375C61.2128 13.9546 61.0876 13.9101 60.999 13.8212C60.9106 13.7175 60.8738 13.599 60.8885 13.4656C60.8885 13.199 60.9842 12.8952 61.176 12.5545C61.3824 12.1989 61.6922 11.8507 62.1051 11.5099C62.518 11.1691 63.0489 10.8876 63.6977 10.6654C64.3468 10.4431 65.1284 10.332 66.0426 10.332C67.0011 10.332 67.8198 10.4431 68.4981 10.6654C69.1766 10.8876 69.7223 11.1988 70.1352 11.5988C70.5628 11.9988 70.8799 12.4729 71.0864 13.0211C71.2928 13.5545 71.3959 14.1472 71.3959 14.7991V21.5552C71.3959 21.7182 71.337 21.8516 71.2189 21.9553C71.1158 22.059 70.9904 22.1109 70.8429 22.1109H68.2769C68.1146 22.1109 67.9821 22.059 67.8787 21.9553C67.7754 21.8516 67.7238 21.7182 67.7238 21.5552V20.7774C67.5321 21.0589 67.2741 21.3182 66.9496 21.5552C66.6253 21.7923 66.2419 21.9775 65.7993 22.1109C65.3717 22.259 64.8702 22.3331 64.295 22.3331ZM65.3348 19.7995C65.7625 19.7995 66.1459 19.7106 66.4851 19.5328C66.8391 19.3402 67.1119 19.0513 67.3036 18.6661C67.51 18.2661 67.6134 17.7697 67.6134 17.1771V16.8659L65.733 17.1993C65.0398 17.3178 64.5311 17.503 64.2066 17.7549C63.8968 17.992 63.7422 18.2735 63.7422 18.5994C63.7422 18.8513 63.8158 19.0661 63.9634 19.2439C64.1106 19.4217 64.3024 19.5625 64.5385 19.6662C64.7744 19.7551 65.0398 19.7995 65.3348 19.7995Z" fill="#0F172A"/>
<path d="M73.0742 21.974C73.1773 22.0629 73.2954 22.1074 73.4279 22.1074H76.1712C76.3629 22.1074 76.5028 22.0629 76.5914 21.974L76.8126 21.7517L79.069 18.7071L81.3031 21.7517C81.3623 21.8258 81.4359 21.9073 81.5245 21.9962C81.6129 22.0703 81.7457 22.1074 81.9227 22.1074H84.732C84.8795 22.1074 84.9976 22.0629 85.0859 21.974C85.1893 21.8703 85.2408 21.7517 85.2408 21.6184C85.2408 21.5592 85.2335 21.4999 85.2187 21.4406C85.204 21.3814 85.1672 21.3221 85.108 21.2628L81.3696 16.1735L84.8206 11.3953C84.8648 11.336 84.8942 11.2768 84.9089 11.2175C84.9237 11.1582 84.931 11.099 84.931 11.0397C84.931 10.9064 84.8795 10.7952 84.7761 10.7064C84.6878 10.6026 84.5771 10.5508 84.4445 10.5508H81.8562C81.6645 10.5508 81.5172 10.6026 81.4138 10.7064C81.3255 10.7952 81.2516 10.8767 81.1927 10.9508L79.1574 13.7955L77.1003 10.9286C77.0559 10.8545 76.9822 10.773 76.8789 10.6841C76.7905 10.5952 76.6503 10.5508 76.4586 10.5508H73.7598C73.627 10.5508 73.5092 10.6026 73.4059 10.7064C73.3027 10.7952 73.251 10.9064 73.251 11.0397C73.251 11.099 73.2586 11.1582 73.2733 11.2175C73.3027 11.2768 73.3396 11.336 73.3838 11.3953L76.7463 16.1735L73.0519 21.2628C73.0077 21.3221 72.9782 21.3888 72.9635 21.4628C72.9488 21.5221 72.9414 21.574 72.9414 21.6184C72.9414 21.7517 72.9856 21.8703 73.0742 21.974Z" fill="#0F172A"/>
<path fill-rule="evenodd" clip-rule="evenodd" d="M6.51467 27.0197C5.37911 27.0197 4.43527 26.8715 3.68315 26.5752C2.94579 26.2789 2.35587 25.9233 1.91345 25.5084C1.48577 25.0936 1.17607 24.6787 0.984354 24.2639C0.792638 23.8638 0.689405 23.5453 0.674656 23.3082C0.659908 23.1453 0.711525 23.0119 0.829506 22.9082C0.947486 22.8045 1.08759 22.7526 1.24981 22.7526H4.05922C4.19193 22.7526 4.30254 22.7823 4.39104 22.8415C4.49426 22.9156 4.57537 23.0341 4.63436 23.1971C4.7081 23.3601 4.80396 23.5305 4.92193 23.7083C5.05466 23.8861 5.23165 24.0268 5.45285 24.1305C5.68881 24.2491 6.00589 24.3083 6.40408 24.3083C6.8465 24.3083 7.21519 24.2343 7.51013 24.0861C7.80507 23.9527 8.0263 23.7231 8.17378 23.3971C8.32124 23.086 8.39498 22.6638 8.39498 22.1304V20.6413C8.0558 21.0117 7.62074 21.3155 7.08982 21.5525C6.55893 21.7748 5.91739 21.8859 5.16527 21.8859C4.41315 21.8859 3.74951 21.7748 3.17435 21.5525C2.59922 21.3303 2.11991 20.9969 1.73648 20.5524C1.35304 20.108 1.05072 19.5672 0.829506 18.9301C0.62304 18.293 0.497687 17.5596 0.453444 16.7299C0.438696 16.3447 0.438696 15.9595 0.453444 15.5742C0.497687 14.7742 0.62304 14.0556 0.829506 13.4185C1.03597 12.7814 1.33092 12.2332 1.71436 11.7739C2.11254 11.3146 2.59922 10.9664 3.17435 10.7294C3.74951 10.4775 4.41315 10.3516 5.16527 10.3516C5.96165 10.3516 6.64003 10.5071 7.20043 10.8183C7.77559 11.1146 8.24752 11.4924 8.6162 11.9517V11.1294C8.6162 10.9812 8.6678 10.8553 8.77105 10.7516C8.87427 10.6331 9.007 10.5738 9.16924 10.5738H11.7132C11.8754 10.5738 12.0081 10.6331 12.1114 10.7516C12.2293 10.8553 12.2883 10.9812 12.2883 11.1294V21.8192C12.2883 22.9452 12.0597 23.8935 11.6026 24.6639C11.1454 25.4344 10.4891 26.0196 9.63378 26.4196C8.77842 26.8197 7.73872 27.0197 6.51467 27.0197ZM6.35982 18.9968C6.83175 18.9968 7.21519 18.893 7.51013 18.6856C7.80507 18.4782 8.01893 18.2115 8.15166 17.8855C8.29912 17.5596 8.38023 17.2114 8.39498 16.841C8.40973 16.678 8.4171 16.4484 8.4171 16.1521C8.4171 15.8557 8.40973 15.6335 8.39498 15.4853C8.38023 15.1001 8.29912 14.7445 8.15166 14.4186C8.01893 14.0926 7.80507 13.8333 7.51013 13.6407C7.21519 13.4333 6.83175 13.3296 6.35982 13.3296C5.87316 13.3296 5.48236 13.4333 5.18739 13.6407C4.9072 13.8481 4.70073 14.1297 4.568 14.4852C4.45003 14.8408 4.37628 15.2335 4.34678 15.6631C4.33205 15.9891 4.33205 16.3225 4.34678 16.6632C4.37628 17.0929 4.45003 17.4855 4.568 17.8411C4.70073 18.1967 4.9072 18.4782 5.18739 18.6856C5.48236 18.893 5.87316 18.9968 6.35982 18.9968Z" fill="#0F172A"/>
</g>
<defs>
<clipPath id="clip0_145_27701">
<rect width="86" height="24" fill="white" transform="translate(0 5)"/>
</clipPath>
</defs>
</svg>
