<svg xmlns="http://www.w3.org/2000/svg" width="36" height="36" viewBox="0 0 36 36" fill="none">
    <path fill-rule="evenodd" clip-rule="evenodd"
        d="M1.8886 3.48384C0 5.91861 0 9.46574 0 16.56V19.44C0 26.5343 0 30.0814 1.8886 32.5162C2.35134 33.1127 2.88729 33.6487 3.48384 34.1114C5.91861 36 9.46574 36 16.56 36H19.44C26.5343 36 30.0814 36 32.5162 34.1114C33.1127 33.6487 33.6487 33.1127 34.1114 32.5162C36 30.0814 36 26.5343 36 19.44V16.56C36 9.46574 36 5.91861 34.1114 3.48384C33.6487 2.88729 33.1127 2.35134 32.5162 1.8886C30.0814 0 26.5343 0 19.44 0H16.56C9.46574 0 5.91861 0 3.48384 1.8886C2.88729 2.35134 2.35134 2.88729 1.8886 3.48384ZM24.3915 7.50018H22.1415V6.00018H28.1415V7.50018H25.8915V28.5002H28.1415V30.0002H22.1415V28.5002H24.3915V7.50018ZM12.1456 27.16C12.9314 27.468 13.9173 27.622 15.1036 27.622C16.3823 27.622 17.4685 27.4141 18.362 26.9983C19.2556 26.5825 19.9412 25.9742 20.4187 25.1734C20.8963 24.3726 21.1351 23.387 21.1351 22.2166V11.1055C21.1351 10.9515 21.0735 10.8206 20.9503 10.7128C20.8424 10.5896 20.7038 10.528 20.5343 10.528H17.8767C17.7073 10.528 17.5686 10.5896 17.4608 10.7128C17.3529 10.8206 17.299 10.9515 17.299 11.1055V11.9602C16.9138 11.4828 16.4208 11.0901 15.82 10.7821C15.2346 10.4587 14.5259 10.297 13.694 10.297C12.9082 10.297 12.215 10.4279 11.6141 10.6897C11.0133 10.9361 10.5049 11.298 10.0889 11.7754C9.68835 12.2528 9.38023 12.8226 9.16454 13.4848C8.94886 14.147 8.81791 14.8939 8.77169 15.7255C8.75628 16.1259 8.75628 16.5263 8.77169 16.9267C8.81791 17.7891 8.94886 18.5514 9.16454 19.2136C9.39564 19.8758 9.71146 20.4379 10.112 20.8999C10.5126 21.3619 11.0133 21.7084 11.6141 21.9394C12.215 22.1704 12.9082 22.2859 13.694 22.2859C14.4797 22.2859 15.1498 22.1704 15.7045 21.9394C16.2591 21.693 16.7136 21.3773 17.0679 20.9923V22.54C17.0679 23.0944 16.9909 23.5333 16.8368 23.8567C16.6828 24.1955 16.4517 24.4342 16.1435 24.5728C15.8354 24.7268 15.4503 24.8038 14.9881 24.8038C14.5721 24.8038 14.2409 24.7422 13.9944 24.619C13.7633 24.5112 13.5784 24.3649 13.4398 24.1801C13.3165 23.9953 13.2164 23.8182 13.1393 23.6488C13.0777 23.4794 12.993 23.3562 12.8851 23.2792C12.7927 23.2176 12.6771 23.1868 12.5385 23.1868H9.60362C9.43415 23.1868 9.28779 23.2407 9.16454 23.3485C9.04129 23.4563 8.98737 23.5949 9.00278 23.7643C9.01818 24.0107 9.12603 24.3418 9.32631 24.7576C9.52659 25.1888 9.85012 25.62 10.2969 26.0512C10.7591 26.4824 11.3753 26.852 12.1456 27.16ZM16.1435 18.9595C15.8354 19.1751 15.4349 19.2829 14.9419 19.2829C14.4335 19.2829 14.0252 19.1751 13.7171 18.9595C13.4243 18.7439 13.2087 18.4513 13.07 18.0817C12.9468 17.7121 12.8697 17.304 12.8389 16.8574C12.8235 16.5032 12.8235 16.1567 12.8389 15.8179C12.8697 15.3713 12.9468 14.9632 13.07 14.5936C13.2087 14.224 13.4243 13.9314 13.7171 13.7158C14.0252 13.5002 14.4335 13.3924 14.9419 13.3924C15.4349 13.3924 15.8354 13.5002 16.1435 13.7158C16.4517 13.916 16.675 14.1855 16.8137 14.5243C16.9678 14.8631 17.0525 15.2327 17.0679 15.6331C17.0833 15.7871 17.091 16.0181 17.091 16.3261C17.091 16.6341 17.0833 16.8728 17.0679 17.0422C17.0525 17.4272 16.9678 17.7891 16.8137 18.1279C16.675 18.4667 16.4517 18.7439 16.1435 18.9595Z"
        fill="#0F172A" />
</svg>